<svg xmlns="http://www.w3.org/2000/svg" xmlns:svg="http://www.w3.org/2000/svg" style="font-size:12px;overflow:visible;color-interpolation-filters:sRGB;fill:none;fill-rule:evenodd;stroke-linecap:square;stroke-miterlimit:3" id="svg481" width="377.499" height="116.12" class="st8" version="1.1" viewBox="0 0 283.125 87.09" xml:space="preserve"><metadata id="metadata487"/><style id="style2" type="text/css">.st8{fill:none;fill-rule:evenodd;font-size:12px;overflow:visible;stroke-linecap:square;stroke-miterlimit:3}</style><g id="layer2" transform="translate(-9.9445075,-23.207744)"><path id="path1237" d="m 246.83272,51.980649 c -0.94234,2.045975 -2.82772,6.139447 -4.71275,10.232158 2.75,0 5.50064,0 7.32838,0 1.82774,0 2.7325,0 2.91319,0.575065 0.1807,0.575064 -0.36129,1.72159 -3.10807,6.717221 -2.74678,4.995631 -7.66761,13.784237 -10.49506,18.484592 -2.82744,4.700354 -3.54656,5.286492 -4.18645,5.535964 -0.63989,0.249473 -1.1949,0.15927 -1.64778,-0.121551 -0.45288,-0.280822 -0.80235,-0.75235 -0.97687,-1.207635 -0.17453,-0.455285 -0.17453,-0.894365 0.42504,-4.263837 0.59956,-3.369472 1.79854,-9.669435 2.9976,-15.969803 -3.26127,-0.0059 -6.52164,-0.0118 -8.52173,-0.0118 -2.00009,-4e-6 -2.73877,0.0059 -2.90961,-0.454981 -0.17085,-0.460878 0.22658,-1.387612 1.60152,-5.137521 1.37493,-3.749908 3.72808,-10.324779 5.15427,-13.860576 1.42619,-3.535797 1.92627,-4.035875 2.67604,-4.283768 0.74978,-0.247894 1.74917,-0.244401 3.87534,-0.244402 2.12618,-2e-6 5.3792,-0.0035 7.45326,-0.0038 2.07406,-2.62e-4 2.96945,0.0027 3.28559,0.330904 0.31615,0.328199 0.0535,0.982518 -0.0781,1.310154 -0.13152,0.327636 -0.13152,0.327599 -1.07386,2.373575 z" style="fill:#ffe680;fill-opacity:1;stroke:#0d7c67;stroke-width:3.45000529;stroke-linecap:butt;stroke-linejoin:miter;stroke-miterlimit:3;stroke-dasharray:none;stroke-opacity:1"/></g><g id="layer1" transform="translate(-9.9445075,-23.207744)"><g style="fill:#0d7c67;fill-opacity:1;stroke:none;stroke-width:3.75000596;stroke-miterlimit:3;stroke-dasharray:none;stroke-opacity:1" id="g1214" transform="translate(32.984049,1.6755319)"><text style="font-style:normal;font-weight:400;font-size:70.00010681px;line-height:1.25;font-family:sans-serif;letter-spacing:0;word-spacing:0;fill:#0d7c67;fill-opacity:1;stroke:none;stroke-width:3.75000596;stroke-miterlimit:3;stroke-dasharray:none;stroke-opacity:1" id="text1114" x="-22.614" y="100.287" xml:space="preserve"><tspan id="tspan1112" x="-22.614" y="100.287" dx="0 0 0 0" dy="0 0 0 0" style="font-style:normal;font-variant:normal;font-weight:400;font-stretch:normal;font-size:75.00011444px;line-height:0;font-family:sans-serif;-inkscape-font-specification:sans-serif;letter-spacing:-5.97750998px;fill:#0d7c67;fill-opacity:1;stroke:none;stroke-width:3.75000596;stroke-miterlimit:3;stroke-dasharray:none;stroke-opacity:1"><tspan id="tspan1000" style="letter-spacing:-8.04001427px">b</tspan><tspan style="letter-spacing:-11.65501785px" id="tspan1159">a</tspan><tspan id="tspan1433" style="letter-spacing:-4.76250696px">r</tspan><tspan id="tspan1377" style="letter-spacing:-4.50750685px">r</tspan><tspan id="tspan1435" style="letter-spacing:-8.09251213px">e</tspan>l</tspan></text></g><path id="path1208" d="m 230.86995,100.46287 c -10.25002,-0.12499 -18.75004,-0.37499 -25.00042,-2.500007 -6.25037,-2.125016 -10.25037,-6.12502 -12.25038,-12.500406 -2,-6.375386 -2,-15.125399 0.50045,-20.750259 2.50046,-5.624859 7.50046,-8.12486 11.6254,-9.374637 4.12493,-1.249778 7.37418,-1.249778 10.62419,-1.249778 0,0 0,0 0,-1.500371 0,-1.500372 0,-4.500388 1.00029,-7.500451 1.00029,-3.000062 3.00029,-6.000066 6.12545,-8.124769 3.12516,-2.124703 7.37516,-3.374703 11.01759,-3.932151 3.64244,-0.557449 6.67746,-0.422638 9.42737,-0.04759 2.74991,0.37505 5.2149,0.990242 7.82222,2.172833 2.60733,1.182591 5.35733,2.932596 7.10716,4.682355 1.74983,1.749759 2.49983,3.499763 2.99987,5.374624 0.50004,1.87486 0.75004,3.874863 0.87508,7.249816 0.12504,3.374953 0.12504,8.125711 0.12504,12.875718 0,0 0,0 0,0 6.25001,0 12.50077,0 16.12534,2.374721 3.62457,2.37472 4.62457,7.124727 4.62476,11.249571 1.8e-4,4.124845 -0.99982,7.62485 -2.74958,10.722057 -1.74977,3.097207 -4.24978,5.791506 -6.9997,7.541778 -2.74992,1.750272 -5.74992,2.555982 -13.25001,2.958953 -7.50008,0.40298 -19.50009,0.40298 -29.75012,0.27799 z" style="fill:none;stroke:#0d7c67;stroke-width:4.50000715;stroke-linecap:butt;stroke-linejoin:miter;stroke-miterlimit:3;stroke-dasharray:none;stroke-opacity:1"/></g></svg>